<svg width="20" height="16" viewBox="0 0 20 16" fill="none" xmlns="http://www.w3.org/2000/svg">
<path d="M1 2.75C1 2.21957 1.21071 1.71086 1.58579 1.33579C1.96086 0.960714 2.46957 0.75 3 0.75H17C17.5304 0.75 18.0391 0.960714 18.4142 1.33579C18.7893 1.71086 19 2.21957 19 2.75M1 2.75V12.75C1 13.2804 1.21071 13.7891 1.58579 14.1642C1.96086 14.5393 2.46957 14.75 3 14.75H17C17.5304 14.75 18.0391 14.5393 18.4142 14.1642C18.7893 13.7891 19 13.2804 19 12.75V2.75M1 2.75L10 8.75L19 2.75" stroke="white" stroke-width="1.5" stroke-linecap="round" stroke-linejoin="round"/>
</svg>
